<svg width="28" height="22" viewBox="0 0 28 22" fill="none" xmlns="http://www.w3.org/2000/svg">
<path d="M24.6667 18.9997H22.0001V7.33301L14.0001 12.333L6.00008 7.33301V18.9997H3.33341V2.99967H4.93341L14.0001 8.66634L23.0667 2.99967H24.6667V18.9997ZM24.6667 0.333008H3.33341C1.85341 0.333008 0.666748 1.51967 0.666748 2.99967V18.9997C0.666748 19.7069 0.9477 20.3852 1.4478 20.8853C1.94789 21.3854 2.62617 21.6663 3.33341 21.6663H24.6667C25.374 21.6663 26.0523 21.3854 26.5524 20.8853C27.0525 20.3852 27.3334 19.7069 27.3334 18.9997V2.99967C27.3334 2.29243 27.0525 1.61415 26.5524 1.11406C26.0523 0.613959 25.374 0.333008 24.6667 0.333008Z" fill="white"/>
</svg>
