<svg width="10" height="16" viewBox="0 0 10 16" fill="none" xmlns="http://www.w3.org/2000/svg">
<path d="M5.00001 2.16667V9.29167C4.21667 8.84167 3.25001 8.66667 2.22501 9.025C1.10834 9.425 0.250008 10.4167 0.0500077 11.5833C-0.0424512 12.1083 -0.00789435 12.6477 0.150789 13.1566C0.309473 13.6655 0.587672 14.129 0.962127 14.5083C1.33658 14.8877 1.79641 15.1718 2.30317 15.3371C2.80993 15.5024 3.3489 15.544 3.87501 15.4583C5.50834 15.2 6.66668 13.7 6.66668 12.0417V3.83333H8.33334C9.25001 3.83333 10 3.08333 10 2.16667C10 1.25 9.25001 0.5 8.33334 0.5H6.66668C5.75001 0.5 5.00001 1.25 5.00001 2.16667Z" fill="#828282"/>
</svg>
