<svg width="19" height="19" viewBox="0 0 19 19" fill="none" xmlns="http://www.w3.org/2000/svg">
<path fill-rule="evenodd" clip-rule="evenodd" d="M9.68525 2.17922C9.63264 2.13721 9.56732 2.11433 9.5 2.11433C9.43268 2.11433 9.36736 2.13721 9.31475 2.17922L3.08038 7.16672C3.04545 7.19461 3.01727 7.23003 2.99794 7.27033C2.97861 7.31063 2.96863 7.35478 2.96875 7.39947V15.7345C2.96875 15.8984 3.10175 16.0314 3.26562 16.0314H6.53125V9.79704C6.53125 9.56083 6.62508 9.33429 6.79211 9.16727C6.95913 9.00024 7.18567 8.90641 7.42188 8.90641H11.5781C11.8143 8.90641 12.0409 9.00024 12.2079 9.16727C12.3749 9.33429 12.4688 9.56083 12.4688 9.79704V16.0314H15.7344C15.8131 16.0314 15.8886 16.0001 15.9443 15.9445C16 15.8888 16.0312 15.8133 16.0312 15.7345V7.39828C16.0312 7.35379 16.0211 7.30988 16.0018 7.2698C15.9825 7.22971 15.9544 7.19449 15.9196 7.16672L9.68525 2.17922ZM8.20088 0.788659C8.56941 0.493707 9.02738 0.333008 9.49941 0.333008C9.97144 0.333008 10.4294 0.493707 10.7979 0.788659L17.0323 5.77616C17.5251 6.17041 17.8125 6.76772 17.8125 7.39947V15.7345C17.8125 16.2857 17.5936 16.8143 17.2038 17.204C16.8141 17.5937 16.2855 17.8127 15.7344 17.8127H11.5781C11.3419 17.8127 11.1154 17.7188 10.9484 17.5518C10.7813 17.3848 10.6875 17.1582 10.6875 16.922V10.6877H8.3125V16.922C8.3125 17.1582 8.21867 17.3848 8.05164 17.5518C7.88462 17.7188 7.65808 17.8127 7.42188 17.8127H3.26562C2.71447 17.8127 2.18589 17.5937 1.79617 17.204C1.40644 16.8143 1.1875 16.2857 1.1875 15.7345V7.39828C1.1875 6.76772 1.47487 6.17041 1.96769 5.77616L8.20206 0.788659H8.20088Z" fill="#828282"/>
</svg>
