<svg width="54" height="40" viewBox="0 0 54 40" fill="none" xmlns="http://www.w3.org/2000/svg">
<path d="M54 33.5C54 35.0913 53.3679 36.6174 52.2426 37.7426C51.1174 38.8679 49.5913 39.5 48 39.5H6C4.4087 39.5 2.88258 38.8679 1.75736 37.7426C0.632141 36.6174 0 35.0913 0 33.5V6.5C0 4.9087 0.632141 3.38258 1.75736 2.25736C2.88258 1.13214 4.4087 0.5 6 0.5H48C49.5913 0.5 51.1174 1.13214 52.2426 2.25736C53.3679 3.38258 54 4.9087 54 6.5V33.5Z" fill="#00785E"/>
<path fill-rule="evenodd" clip-rule="evenodd" d="M26.9638 5.85059C27.2353 6.37109 27.3823 7.01309 27.5743 7.61159H29.4823C28.9903 7.99559 28.4653 8.34509 27.9703 8.72609C28.1113 9.34109 28.3423 9.86459 28.5103 10.4511C28.4083 10.4916 28.2643 10.3551 28.1503 10.2726C27.8203 10.0281 27.3808 9.69809 27.0373 9.44459C26.4778 9.72359 25.9678 10.2441 25.4908 10.4871C25.6423 9.88409 25.8763 9.36359 26.0308 8.76059C25.5703 8.34509 25.0453 7.99559 24.5203 7.64609C25.0708 7.56209 25.7788 7.63409 26.3893 7.61159C26.6038 7.04909 26.8063 6.47159 26.9638 5.85059V5.85059ZM18.8023 10.9566C19.1713 10.7361 19.5013 10.4811 19.8448 10.2381C19.6888 9.86758 19.6213 9.40709 19.4488 9.05159C19.7803 9.16409 20.1358 9.56309 20.4913 9.77009C20.8618 9.55409 21.1948 9.29909 21.5338 9.05159C21.5053 9.39509 21.2638 9.83608 21.1753 10.2381C21.4513 10.5591 21.8338 10.7751 22.1803 11.0286C21.8188 11.1156 21.2968 11.0496 20.9233 11.0286C20.7373 11.3931 20.6083 11.8161 20.4913 12.2511C20.3023 11.9016 20.2033 11.4606 20.0953 11.0286H19.1248C19.0993 10.9236 18.8308 11.0601 18.8023 10.9566V10.9566ZM34.8733 11.0286H33.9388C33.7843 11.4141 33.6868 11.8551 33.5428 12.2511C33.3793 11.8626 33.2533 11.4366 33.1093 11.0286C32.7043 11.0646 32.2678 11.0721 31.8163 11.0646C32.1283 10.7766 32.5123 10.5621 32.8228 10.2741C32.7238 9.83459 32.5558 9.46259 32.4268 9.05159C32.7913 9.27509 33.1243 9.53009 33.4693 9.77009C33.8758 9.56309 34.1593 9.23609 34.5478 9.01559C34.3918 9.38459 34.3258 9.84659 34.1518 10.2006C34.4548 10.4976 34.8328 10.7196 35.1943 10.9566C35.1673 11.0601 34.9003 10.9236 34.8733 11.0286V11.0286ZM16.8988 13.2201C17.0743 13.5591 17.0758 14.0721 17.1853 14.4786C17.6368 14.5071 18.0388 14.5821 18.4783 14.6226C18.1168 14.8356 17.7583 15.0516 17.3653 15.2331C17.3893 15.6891 17.5078 16.0506 17.5813 16.4556C17.4763 16.4796 17.2663 16.2741 17.1133 16.1316C16.9453 15.9756 16.7938 15.7776 16.6468 15.6651C16.2418 15.8481 15.8998 16.0911 15.4963 16.2756C15.6763 15.9036 15.8248 15.5016 16.0348 15.1611C15.7813 14.8026 15.4348 14.5401 15.1003 14.2626C15.4768 14.1981 15.9568 14.3391 16.3588 14.3706C16.5658 14.0151 16.7398 13.6266 16.8988 13.2201V13.2201ZM37.6048 14.3706C38.0368 14.3241 38.4433 14.2491 38.8993 14.2266C38.5933 14.5356 38.2468 14.7981 37.9618 15.1266C38.1553 15.4866 38.3053 15.8871 38.5033 16.2411C38.1598 16.1631 37.7458 15.8466 37.3873 15.6666C37.0393 15.8916 36.7258 16.3461 36.4183 16.4931C36.4813 16.0776 36.6013 15.7176 36.6343 15.2721C36.2789 15.0401 35.9063 14.8355 35.5198 14.6601C35.8843 14.5446 36.3568 14.5386 36.7783 14.4816C36.9358 14.1261 36.9388 13.6116 37.0663 13.2231C37.2658 13.5846 37.4383 13.9746 37.6048 14.3706V14.3706Z" fill="#FBD116"/>
<path fill-rule="evenodd" clip-rule="evenodd" d="M32.1403 27.8166C29.8033 27.6966 28.3183 26.7246 26.9638 25.6221C25.6978 26.7861 24.1528 27.6741 21.8608 27.8166H15.1018C15.1093 27.8451 15.1018 27.8871 15.1363 27.8871C15.2923 28.1271 15.4498 28.3641 15.6403 28.5696C17.7418 28.7136 20.2408 28.6431 22.3618 28.6071C24.3973 28.4841 25.7518 27.6816 26.9998 26.7726C28.2433 27.6846 29.6023 28.4826 31.6363 28.6071C33.7978 28.6416 36.2968 28.7121 38.3593 28.5696C38.5408 28.3521 38.7073 28.1271 38.8633 27.8871C38.8738 27.8916 38.8918 27.8811 38.9008 27.8871C38.6368 27.7266 37.8238 27.8166 37.3888 27.8166H32.1403V27.8166ZM37.5313 29.5401C37.5943 29.5506 37.6573 29.4006 37.5313 29.4336C30.4978 29.4801 23.2903 29.3376 16.3933 29.5056C16.4293 29.5056 16.4353 29.5341 16.4653 29.5401C16.5583 29.6451 16.6828 29.8236 16.8253 29.8641C17.1088 29.9421 17.6233 29.8641 18.0823 29.8641H37.2433C37.3198 29.7336 37.4578 29.6706 37.5313 29.5401V29.5401ZM36.2383 30.7986C36.2743 30.8001 36.2803 30.7716 36.3103 30.7626C36.3133 30.7191 36.3553 30.7146 36.3448 30.6561C30.3538 30.7731 24.0823 30.4971 18.1198 30.6561C18.0178 30.6591 17.7133 30.5541 17.6878 30.7626C17.7238 30.7626 17.7313 30.7926 17.7598 30.7986C17.9803 30.9621 18.1948 31.1331 18.4078 31.3011C24.0538 31.3626 29.9473 31.3626 35.5918 31.3011C35.8048 31.1331 36.0208 30.9636 36.2383 30.7986ZM34.5868 31.9836C34.6813 31.9146 34.6708 31.9341 34.5868 31.9131C34.0888 31.7961 33.3208 31.9131 32.6803 31.9131H20.1703C19.9378 31.9131 19.2628 31.8651 19.4158 31.9836C19.8373 32.2461 20.2738 32.4921 20.7463 32.7036C24.8323 32.7621 29.1703 32.7621 33.2548 32.7036C33.7147 32.4942 34.1597 32.2536 34.5868 31.9836V31.9836ZM32.2138 33.1731H32.2843C32.2828 33.1116 32.2708 33.1071 32.2138 33.0996C31.4248 32.9841 30.4768 33.0996 29.5888 33.0996C26.9458 33.0996 24.1648 33.0411 21.7153 33.1731H21.7888C23.0803 33.6501 24.4708 34.0356 26.1748 34.1061C26.3188 34.1901 26.6173 34.1196 26.8213 34.1421H27.1813C27.3853 34.1181 27.6838 34.1886 27.8278 34.1061C29.5228 34.0296 30.9208 33.6561 32.2138 33.1731Z" fill="white"/>
<path fill-rule="evenodd" clip-rule="evenodd" d="M23.8724 17.9664C23.9414 19.6824 24.4049 21.0039 25.1309 22.0644C24.5534 20.7819 24.0419 19.3689 24.1964 17.5344C24.2799 16.4851 24.5746 15.4634 25.0628 14.5308C25.551 13.5982 26.2226 12.7739 27.0374 12.1074C28.3679 13.3059 29.5814 15.1284 29.8049 17.4999C29.9894 19.4739 29.3894 21.0369 28.6904 22.3164C29.4719 21.3129 30.0644 19.8099 30.1289 17.9664C30.1889 17.9049 30.1889 17.5959 30.1289 17.5344C30.0824 16.2759 29.8019 15.2469 29.3744 14.3709C29.6009 13.9164 29.9684 13.5984 30.0914 13.0419C30.6614 13.9449 31.0289 15.0519 31.1339 16.4214V17.5359C31.0334 19.2324 30.4589 20.4564 29.7689 21.5619C29.7374 21.5664 29.6579 21.6804 29.7329 21.6699C29.8064 21.5394 29.9459 21.4764 30.0209 21.3459C31.5734 20.0244 33.4004 18.9744 36.1679 18.8664H36.8159C36.8834 18.9744 36.6419 19.1109 36.5279 19.2624C36.4049 19.4244 36.3164 19.6404 36.2039 19.7664C33.1949 19.8249 31.2299 20.9274 29.6624 22.4244C30.8459 21.6099 32.4689 20.6904 34.3724 20.5209C36.1919 20.3589 37.7699 20.6394 39.1169 21.2034C38.7657 22.1811 38.215 23.075 37.4999 23.8284C37.33 23.9693 37.1733 24.1255 37.0319 24.2949C35.7929 25.4169 34.2869 26.2689 32.0714 26.4159H31.2089C31.2089 26.4504 31.2524 26.4429 31.2809 26.4504C31.4309 26.5434 31.6889 26.5224 31.9274 26.5239C32.176 26.5824 32.4348 26.5824 32.6834 26.5239C35.0924 26.4309 36.6014 25.4334 37.9664 24.2949C38.1554 24.4299 39.0044 24.3939 38.8304 24.5829C38.6358 24.7467 38.4557 24.9269 38.2919 25.1214C37.0199 26.2344 35.4764 27.0744 33.2219 27.2064H32.4659C30.1904 27.0744 28.6379 26.2194 27.3629 25.0854C27.2414 24.9564 27.1499 24.7974 26.9669 24.7269C26.8799 24.8679 26.7314 24.9459 26.6444 25.0854C25.3679 26.2194 23.8139 27.0729 21.5399 27.2064H20.7854C18.5099 27.0699 16.9484 26.2254 15.6809 25.0854C15.5278 24.9036 15.3592 24.7355 15.1769 24.5829C15.1964 24.5319 15.0359 24.4929 15.1409 24.4749C15.4559 24.4419 15.7529 24.3909 16.0049 24.2949C17.4104 25.4049 18.8924 26.4399 21.3254 26.5239C21.4919 26.5824 21.9119 26.5824 22.0799 26.5239C22.3169 26.5224 22.5794 26.5434 22.7264 26.4504H22.7984C22.5824 26.3679 22.2119 26.4384 21.9374 26.4159C19.7189 26.2719 18.2159 25.4154 16.9754 24.2949C16.8343 24.1251 16.6776 23.9689 16.5074 23.8284C15.7906 23.0762 15.2397 22.182 14.8904 21.2034C16.2299 20.6379 17.7944 20.3694 19.5989 20.5209C21.4889 20.6814 23.1164 21.5739 24.2729 22.3899C24.3419 22.4769 24.4409 22.5339 24.5249 22.6074C24.5114 22.4874 24.4169 22.4514 24.3449 22.3899C22.7384 20.9559 20.8274 19.8204 17.8364 19.7679C17.6039 19.4994 17.3189 19.0869 17.1539 18.8694H17.8364C20.5574 18.9894 22.4039 19.9824 23.9129 21.3129C24.0599 21.4659 24.1754 21.6504 24.3794 21.7434C24.4064 21.5874 24.3089 21.7719 24.3074 21.6729C24.274 21.5922 24.2251 21.5188 24.1634 21.4569C23.5109 20.3724 22.9649 19.1799 22.8689 17.5389V16.4244C22.9604 15.0504 23.3654 13.9959 23.8769 13.0449C24.0659 13.5369 24.3509 13.9374 24.6314 14.3394C24.2328 15.2005 23.9895 16.1252 23.9129 17.0709C23.8304 17.1219 23.8994 17.3229 23.8769 17.4309V17.5374C23.8124 17.5959 23.8124 17.9049 23.8724 17.9664V17.9664ZM25.1309 22.0644C25.1537 22.1788 25.2178 22.2807 25.3109 22.3509C25.287 22.237 25.2232 22.1354 25.1309 22.0644V22.0644Z" fill="white"/>
</svg>
