<svg width="17" height="18" viewBox="0 0 17 18" fill="none" xmlns="http://www.w3.org/2000/svg">
<path fill-rule="evenodd" clip-rule="evenodd" d="M11.7813 5.56249C11.7813 6.43273 11.4356 7.26733 10.8202 7.88268C10.2049 8.49804 9.37026 8.84374 8.50002 8.84374C7.62978 8.84374 6.79518 8.49804 6.17983 7.88268C5.56447 7.26733 5.21877 6.43273 5.21877 5.56249C5.21877 4.69225 5.56447 3.85765 6.17983 3.2423C6.79518 2.62694 7.62978 2.28124 8.50002 2.28124C9.37026 2.28124 10.2049 2.62694 10.8202 3.2423C11.4356 3.85765 11.7813 4.69225 11.7813 5.56249ZM11.8613 9.5958C12.6899 8.90496 13.2856 7.97563 13.5673 6.93423C13.8489 5.89284 13.8029 4.78996 13.4356 3.77563C13.0682 2.7613 12.3972 1.88477 11.514 1.2653C10.6308 0.645822 9.57818 0.313477 8.49936 0.313477C7.42055 0.313477 6.36793 0.645822 5.48471 1.2653C4.60149 1.88477 3.93054 2.7613 3.56316 3.77563C3.19578 4.78996 3.1498 5.89284 3.43147 6.93423C3.71315 7.97563 4.3088 8.90496 5.1374 9.5958C3.84536 10.2066 2.74375 11.1574 1.95052 12.3462C1.15728 13.535 0.702277 14.9171 0.63421 16.3447C0.627875 16.6019 0.722512 16.8514 0.897856 17.0397C1.0732 17.228 1.31531 17.3402 1.57234 17.3522C1.82937 17.3642 2.08088 17.2751 2.27302 17.104C2.46516 16.9328 2.58265 16.6933 2.60033 16.4366C2.67189 14.92 3.3247 13.4892 4.42327 12.4413C5.52184 11.3933 6.98178 10.8086 8.50002 10.8086C10.0183 10.8086 11.4782 11.3933 12.5768 12.4413C13.6753 13.4892 14.3282 14.92 14.3997 16.4366C14.4029 16.5676 14.4323 16.6967 14.4861 16.8163C14.5399 16.9358 14.617 17.0434 14.713 17.1327C14.8089 17.2221 14.9218 17.2914 15.0448 17.3365C15.1679 17.3816 15.2988 17.4017 15.4297 17.3956C15.5607 17.3895 15.6891 17.3573 15.8074 17.3009C15.9258 17.2444 16.0316 17.1649 16.1188 17.0671C16.206 16.9692 16.2728 16.8548 16.3152 16.7308C16.3576 16.6067 16.3748 16.4755 16.3658 16.3447C16.2975 14.917 15.8422 13.5348 15.0488 12.346C14.2553 11.1572 13.1535 10.2066 11.8613 9.5958Z" fill="#828282"/>
</svg>
