<svg width="20" height="19" viewBox="0 0 20 19" fill="none" xmlns="http://www.w3.org/2000/svg">
<path fill-rule="evenodd" clip-rule="evenodd" d="M15.4167 3.58301C15.4167 2.72105 15.0743 1.8944 14.4648 1.28491C13.8553 0.675418 13.0286 0.333008 12.1667 0.333008H7.83333C6.97138 0.333008 6.14473 0.675418 5.53524 1.28491C4.92574 1.8944 4.58333 2.72105 4.58333 3.58301H3.5C2.63805 3.58301 1.8114 3.92542 1.2019 4.53491C0.59241 5.1444 0.25 5.97105 0.25 6.83301V15.4997C0.25 16.3616 0.59241 17.1883 1.2019 17.7978C1.8114 18.4073 2.63805 18.7497 3.5 18.7497H16.5C17.362 18.7497 18.1886 18.4073 18.7981 17.7978C19.4076 17.1883 19.75 16.3616 19.75 15.4997V6.83301C19.75 5.97105 19.4076 5.1444 18.7981 4.53491C18.1886 3.92542 17.362 3.58301 16.5 3.58301H15.4167ZM12.1667 2.49967H7.83333C7.54602 2.49967 7.27047 2.61381 7.0673 2.81698C6.86414 3.02014 6.75 3.29569 6.75 3.58301H13.25C13.25 3.29569 13.1359 3.02014 12.9327 2.81698C12.7295 2.61381 12.454 2.49967 12.1667 2.49967ZM3.5 5.74967H16.5C16.7873 5.74967 17.0629 5.86381 17.266 6.06698C17.4692 6.27014 17.5833 6.54569 17.5833 6.83301V15.4997C17.5833 15.787 17.4692 16.0625 17.266 16.2657C17.0629 16.4689 16.7873 16.583 16.5 16.583H3.5C3.21268 16.583 2.93713 16.4689 2.73397 16.2657C2.5308 16.0625 2.41667 15.787 2.41667 15.4997V6.83301C2.41667 6.54569 2.5308 6.27014 2.73397 6.06698C2.93713 5.86381 3.21268 5.74967 3.5 5.74967Z" fill="#828282"/>
</svg>
